<mxfile host="app.diagrams.net" agent="Mozilla/5.0 (Windows NT 10.0; Win64; x64) AppleWebKit/537.36 (KHTML, like Gecko) Chrome/134.0.0.0 Safari/537.36" version="26.1.0">
  <diagram name="Page-1" id="A4uIalELwnofKkKG5QHN">
    <mxGraphModel dx="1934" dy="1957" grid="1" gridSize="10" guides="1" tooltips="1" connect="1" arrows="1" fold="1" page="1" pageScale="1" pageWidth="850" pageHeight="1100" math="0" shadow="0">
      <root>
        <mxCell id="0" />
        <mxCell id="1" parent="0" />
        <mxCell id="WSZrnsG4EJEL1O4he2qe-1" value="SI SDM" style="shape=umlActor;verticalLabelPosition=bottom;verticalAlign=top;html=1;" vertex="1" parent="1">
          <mxGeometry x="200" y="320" width="30" height="60" as="geometry" />
        </mxCell>
        <mxCell id="WSZrnsG4EJEL1O4he2qe-2" value="Pegawai" style="shape=umlActor;verticalLabelPosition=bottom;verticalAlign=top;html=1;" vertex="1" parent="1">
          <mxGeometry x="200" y="190" width="30" height="60" as="geometry" />
        </mxCell>
        <mxCell id="WSZrnsG4EJEL1O4he2qe-3" value="Tata Usasa&lt;div&gt;Departemen&lt;/div&gt;" style="shape=umlActor;verticalLabelPosition=bottom;verticalAlign=top;html=1;" vertex="1" parent="1">
          <mxGeometry x="200" y="460" width="30" height="60" as="geometry" />
        </mxCell>
        <mxCell id="WSZrnsG4EJEL1O4he2qe-4" value="Kantor pajak" style="shape=umlActor;verticalLabelPosition=bottom;verticalAlign=top;html=1;" vertex="1" parent="1">
          <mxGeometry x="640" y="460" width="30" height="60" as="geometry" />
        </mxCell>
        <mxCell id="WSZrnsG4EJEL1O4he2qe-5" value="Divisi keuangan&lt;div&gt;universitas&lt;/div&gt;" style="shape=umlActor;verticalLabelPosition=bottom;verticalAlign=top;html=1;" vertex="1" parent="1">
          <mxGeometry x="640" y="320" width="30" height="60" as="geometry" />
        </mxCell>
        <mxCell id="WSZrnsG4EJEL1O4he2qe-6" value="Divisi keuangan&lt;div&gt;fakultas&lt;/div&gt;" style="shape=umlActor;verticalLabelPosition=bottom;verticalAlign=top;html=1;" vertex="1" parent="1">
          <mxGeometry x="640" y="190" width="30" height="60" as="geometry" />
        </mxCell>
        <mxCell id="WSZrnsG4EJEL1O4he2qe-16" value="SIMRA" style="shape=umlFrame;whiteSpace=wrap;html=1;pointerEvents=0;width=70;height=20;" vertex="1" parent="1">
          <mxGeometry x="260" y="-10" width="350" height="840" as="geometry" />
        </mxCell>
        <mxCell id="WSZrnsG4EJEL1O4he2qe-17" value="Menerima slip remunerasi" style="ellipse;whiteSpace=wrap;html=1;" vertex="1" parent="1">
          <mxGeometry x="355" y="10" width="140" height="70" as="geometry" />
        </mxCell>
        <mxCell id="WSZrnsG4EJEL1O4he2qe-18" value="Menerima Laporan Pajak Bulanan" style="ellipse;whiteSpace=wrap;html=1;" vertex="1" parent="1">
          <mxGeometry x="355" y="730" width="140" height="70" as="geometry" />
        </mxCell>
        <mxCell id="WSZrnsG4EJEL1O4he2qe-19" value="Mengirim laporan pajak tahunan" style="ellipse;whiteSpace=wrap;html=1;" vertex="1" parent="1">
          <mxGeometry x="355" y="650" width="140" height="70" as="geometry" />
        </mxCell>
        <mxCell id="WSZrnsG4EJEL1O4he2qe-20" value="Membuat SPT Tahunan" style="ellipse;whiteSpace=wrap;html=1;" vertex="1" parent="1">
          <mxGeometry x="355" y="570" width="140" height="70" as="geometry" />
        </mxCell>
        <mxCell id="WSZrnsG4EJEL1O4he2qe-21" value="Mengirim Laporan Pajak Bulanan" style="ellipse;whiteSpace=wrap;html=1;" vertex="1" parent="1">
          <mxGeometry x="355" y="490" width="140" height="70" as="geometry" />
        </mxCell>
        <mxCell id="WSZrnsG4EJEL1O4he2qe-22" value="Mencetak Laporan Pengeluaran Remunerasi" style="ellipse;whiteSpace=wrap;html=1;" vertex="1" parent="1">
          <mxGeometry x="355" y="410" width="140" height="70" as="geometry" />
        </mxCell>
        <mxCell id="WSZrnsG4EJEL1O4he2qe-23" value="Membuat Surat Setoran Pajak (SSP)" style="ellipse;whiteSpace=wrap;html=1;" vertex="1" parent="1">
          <mxGeometry x="355" y="330" width="140" height="70" as="geometry" />
        </mxCell>
        <mxCell id="WSZrnsG4EJEL1O4he2qe-24" value="Menerima Laporan Pajak Tahunan" style="ellipse;whiteSpace=wrap;html=1;" vertex="1" parent="1">
          <mxGeometry x="355" y="250" width="140" height="70" as="geometry" />
        </mxCell>
        <mxCell id="WSZrnsG4EJEL1O4he2qe-25" value="Menerima Data Pegawai Aktif" style="ellipse;whiteSpace=wrap;html=1;" vertex="1" parent="1">
          <mxGeometry x="355" y="170" width="140" height="70" as="geometry" />
        </mxCell>
        <mxCell id="WSZrnsG4EJEL1O4he2qe-26" value="Menerima Bukti Pemotongan Pajak (BPP)" style="ellipse;whiteSpace=wrap;html=1;" vertex="1" parent="1">
          <mxGeometry x="355" y="90" width="140" height="70" as="geometry" />
        </mxCell>
        <mxCell id="WSZrnsG4EJEL1O4he2qe-37" value="" style="endArrow=open;endFill=1;endSize=12;html=1;rounded=0;exitX=1;exitY=0.3333333333333333;exitDx=0;exitDy=0;exitPerimeter=0;entryX=0;entryY=0.5;entryDx=0;entryDy=0;" edge="1" parent="1" source="WSZrnsG4EJEL1O4he2qe-2" target="WSZrnsG4EJEL1O4he2qe-17">
          <mxGeometry width="160" relative="1" as="geometry">
            <mxPoint x="660" y="270" as="sourcePoint" />
            <mxPoint x="820" y="270" as="targetPoint" />
          </mxGeometry>
        </mxCell>
        <mxCell id="WSZrnsG4EJEL1O4he2qe-38" value="" style="endArrow=open;endFill=1;endSize=12;html=1;rounded=0;entryX=0;entryY=0.5;entryDx=0;entryDy=0;exitX=1;exitY=0.3333333333333333;exitDx=0;exitDy=0;exitPerimeter=0;" edge="1" parent="1" source="WSZrnsG4EJEL1O4he2qe-2" target="WSZrnsG4EJEL1O4he2qe-26">
          <mxGeometry width="160" relative="1" as="geometry">
            <mxPoint x="240" y="215" as="sourcePoint" />
            <mxPoint x="395" y="120" as="targetPoint" />
          </mxGeometry>
        </mxCell>
        <mxCell id="WSZrnsG4EJEL1O4he2qe-39" value="" style="endArrow=open;endFill=1;endSize=12;html=1;rounded=0;exitX=1;exitY=0.3333333333333333;exitDx=0;exitDy=0;exitPerimeter=0;entryX=0;entryY=0.5;entryDx=0;entryDy=0;" edge="1" parent="1" source="WSZrnsG4EJEL1O4he2qe-1" target="WSZrnsG4EJEL1O4he2qe-25">
          <mxGeometry width="160" relative="1" as="geometry">
            <mxPoint x="240" y="335" as="sourcePoint" />
            <mxPoint x="365" y="170" as="targetPoint" />
          </mxGeometry>
        </mxCell>
        <mxCell id="WSZrnsG4EJEL1O4he2qe-40" value="" style="endArrow=open;endFill=1;endSize=12;html=1;rounded=0;exitX=1;exitY=0.3333333333333333;exitDx=0;exitDy=0;exitPerimeter=0;entryX=0;entryY=0.5;entryDx=0;entryDy=0;" edge="1" parent="1" source="WSZrnsG4EJEL1O4he2qe-3" target="WSZrnsG4EJEL1O4he2qe-26">
          <mxGeometry width="160" relative="1" as="geometry">
            <mxPoint x="250" y="432.5" as="sourcePoint" />
            <mxPoint x="375" y="267.5" as="targetPoint" />
          </mxGeometry>
        </mxCell>
        <mxCell id="WSZrnsG4EJEL1O4he2qe-41" value="" style="endArrow=open;endFill=1;endSize=12;html=1;rounded=0;exitX=0;exitY=0.3333333333333333;exitDx=0;exitDy=0;exitPerimeter=0;entryX=1;entryY=0.5;entryDx=0;entryDy=0;" edge="1" parent="1" source="WSZrnsG4EJEL1O4he2qe-6" target="WSZrnsG4EJEL1O4he2qe-23">
          <mxGeometry width="160" relative="1" as="geometry">
            <mxPoint x="240" y="490" as="sourcePoint" />
            <mxPoint x="365" y="135" as="targetPoint" />
          </mxGeometry>
        </mxCell>
        <mxCell id="WSZrnsG4EJEL1O4he2qe-42" value="" style="endArrow=open;endFill=1;endSize=12;html=1;rounded=0;exitX=0;exitY=0.3333333333333333;exitDx=0;exitDy=0;exitPerimeter=0;entryX=1;entryY=0.5;entryDx=0;entryDy=0;" edge="1" parent="1" source="WSZrnsG4EJEL1O4he2qe-6" target="WSZrnsG4EJEL1O4he2qe-21">
          <mxGeometry width="160" relative="1" as="geometry">
            <mxPoint x="650" y="220" as="sourcePoint" />
            <mxPoint x="505" y="375" as="targetPoint" />
          </mxGeometry>
        </mxCell>
        <mxCell id="WSZrnsG4EJEL1O4he2qe-43" value="" style="endArrow=open;endFill=1;endSize=12;html=1;rounded=0;exitX=0;exitY=0.3333333333333333;exitDx=0;exitDy=0;exitPerimeter=0;entryX=1;entryY=0.5;entryDx=0;entryDy=0;" edge="1" parent="1" source="WSZrnsG4EJEL1O4he2qe-5" target="WSZrnsG4EJEL1O4he2qe-20">
          <mxGeometry width="160" relative="1" as="geometry">
            <mxPoint x="660" y="230" as="sourcePoint" />
            <mxPoint x="515" y="385" as="targetPoint" />
          </mxGeometry>
        </mxCell>
        <mxCell id="WSZrnsG4EJEL1O4he2qe-44" value="" style="endArrow=open;endFill=1;endSize=12;html=1;rounded=0;exitX=0;exitY=0.3333333333333333;exitDx=0;exitDy=0;exitPerimeter=0;entryX=1;entryY=0.5;entryDx=0;entryDy=0;" edge="1" parent="1" source="WSZrnsG4EJEL1O4he2qe-5" target="WSZrnsG4EJEL1O4he2qe-22">
          <mxGeometry width="160" relative="1" as="geometry">
            <mxPoint x="670" y="240" as="sourcePoint" />
            <mxPoint x="525" y="395" as="targetPoint" />
          </mxGeometry>
        </mxCell>
        <mxCell id="WSZrnsG4EJEL1O4he2qe-45" value="" style="endArrow=open;endFill=1;endSize=12;html=1;rounded=0;exitX=0;exitY=0.3333333333333333;exitDx=0;exitDy=0;exitPerimeter=0;entryX=1;entryY=0.5;entryDx=0;entryDy=0;" edge="1" parent="1" source="WSZrnsG4EJEL1O4he2qe-5" target="WSZrnsG4EJEL1O4he2qe-19">
          <mxGeometry width="160" relative="1" as="geometry">
            <mxPoint x="680" y="250" as="sourcePoint" />
            <mxPoint x="535" y="405" as="targetPoint" />
          </mxGeometry>
        </mxCell>
        <mxCell id="WSZrnsG4EJEL1O4he2qe-46" value="" style="endArrow=open;endFill=1;endSize=12;html=1;rounded=0;exitX=0;exitY=0.3333333333333333;exitDx=0;exitDy=0;exitPerimeter=0;entryX=1;entryY=0.5;entryDx=0;entryDy=0;" edge="1" parent="1" source="WSZrnsG4EJEL1O4he2qe-4" target="WSZrnsG4EJEL1O4he2qe-24">
          <mxGeometry width="160" relative="1" as="geometry">
            <mxPoint x="690" y="260" as="sourcePoint" />
            <mxPoint x="545" y="415" as="targetPoint" />
          </mxGeometry>
        </mxCell>
        <mxCell id="WSZrnsG4EJEL1O4he2qe-47" value="" style="endArrow=open;endFill=1;endSize=12;html=1;rounded=0;exitX=0;exitY=0.3333333333333333;exitDx=0;exitDy=0;exitPerimeter=0;entryX=1;entryY=0.5;entryDx=0;entryDy=0;" edge="1" parent="1" source="WSZrnsG4EJEL1O4he2qe-4" target="WSZrnsG4EJEL1O4he2qe-18">
          <mxGeometry width="160" relative="1" as="geometry">
            <mxPoint x="650" y="490" as="sourcePoint" />
            <mxPoint x="505" y="295" as="targetPoint" />
          </mxGeometry>
        </mxCell>
      </root>
    </mxGraphModel>
  </diagram>
</mxfile>
